<svg width="171" height="24" viewBox="0 0 171 24" fill="none" xmlns="http://www.w3.org/2000/svg">
<path d="M11 23.384C8.86667 23.384 7.01067 22.8933 5.432 21.912C3.87467 20.9093 2.65867 19.544 1.784 17.816C0.930667 16.0667 0.504 14.072 0.504 11.832C0.504 9.61333 0.930667 7.62933 1.784 5.88C2.63733 4.13067 3.87467 2.75467 5.496 1.752C7.11733 0.727999 9.08 0.216 11.384 0.216C13.9013 0.216 15.992 0.823999 17.656 2.04C19.3413 3.256 20.4293 4.93067 20.92 7.064H17.816C17.5173 5.72 16.8027 4.65333 15.672 3.864C14.5627 3.07467 13.1333 2.68 11.384 2.68C9.61333 2.68 8.12 3.08533 6.904 3.896C5.688 4.70667 4.77067 5.80533 4.152 7.192C3.55467 8.55733 3.256 10.104 3.256 11.832C3.256 13.5813 3.56533 15.1493 4.184 16.536C4.80267 17.9227 5.69867 19.0107 6.872 19.8C8.04533 20.5893 9.45333 20.984 11.096 20.984C13.4853 20.984 15.288 20.2907 16.504 18.904C17.72 17.496 18.4133 15.576 18.584 13.144H10.52V11.032H21.336V23H18.872L18.648 19.32C17.8373 20.6213 16.8453 21.624 15.672 22.328C14.4987 23.032 12.9413 23.384 11 23.384ZM25.5868 23V0.599998H28.2748V20.856H38.7068V23H25.5868ZM50.4815 23.384C48.7748 23.384 47.2388 23.096 45.8735 22.52C44.5082 21.9227 43.3455 21.1013 42.3855 20.056C41.4255 19.0107 40.6895 17.784 40.1775 16.376C39.6868 14.968 39.4415 13.4427 39.4415 11.8C39.4415 10.1573 39.6868 8.632 40.1775 7.224C40.6895 5.816 41.4255 4.58933 42.3855 3.544C43.3455 2.49867 44.4975 1.688 45.8415 1.112C47.2068 0.514666 48.7535 0.216 50.4815 0.216C52.1882 0.216 53.7135 0.503999 55.0575 1.08C56.4228 1.63467 57.5855 2.43467 58.5455 3.48C59.5055 4.504 60.2415 5.73067 60.7535 7.16C61.2655 8.568 61.5215 10.1147 61.5215 11.8C61.5215 13.4853 61.2655 15.0427 60.7535 16.472C60.2415 17.88 59.5055 19.1067 58.5455 20.152C57.5855 21.176 56.4228 21.976 55.0575 22.552C53.7135 23.1067 52.1882 23.384 50.4815 23.384ZM50.4815 21.016C52.2308 21.016 53.7242 20.6213 54.9615 19.832C56.1988 19.0427 57.1375 17.9547 57.7775 16.568C58.4388 15.1813 58.7695 13.592 58.7695 11.8C58.7695 9.96533 58.4388 8.36533 57.7775 7C57.1375 5.61333 56.1988 4.536 54.9615 3.768C53.7242 3 52.2308 2.616 50.4815 2.616C48.7535 2.616 47.2708 3.01067 46.0335 3.8C44.7962 4.58933 43.8468 5.67733 43.1855 7.064C42.5242 8.42933 42.1935 10.008 42.1935 11.8C42.1935 13.5707 42.5242 15.16 43.1855 16.568C43.8468 17.9547 44.7962 19.0427 46.0335 19.832C47.2708 20.6213 48.7535 21.016 50.4815 21.016ZM70.486 23L62.486 0.599998H65.238L72.022 20.472L75.446 10.744L71.894 0.599998H74.646L77.206 8.536L79.766 0.599998H82.518L78.966 10.744L82.39 20.472L89.174 0.599998H91.926L83.926 23H80.854L77.206 12.792L73.558 23H70.486ZM103.536 23.384C101.274 23.384 99.3438 22.8827 97.7438 21.88C96.1438 20.856 94.9278 19.4693 94.0958 17.72C93.2638 15.9707 92.8478 13.9973 92.8478 11.8C92.8478 9.624 93.2531 7.66133 94.0638 5.912C94.8958 4.16267 96.1118 2.776 97.7118 1.752C99.3118 0.727999 101.253 0.216 103.536 0.216C106.096 0.216 108.176 0.834666 109.776 2.072C111.397 3.288 112.432 4.99467 112.88 7.192H109.904C109.562 5.80533 108.858 4.696 107.792 3.864C106.746 3.01067 105.328 2.584 103.536 2.584C101.765 2.584 100.293 3 99.1198 3.832C97.9464 4.64267 97.0611 5.74133 96.4638 7.128C95.8878 8.51467 95.5998 10.072 95.5998 11.8C95.5998 13.5707 95.8984 15.1493 96.4958 16.536C97.1144 17.9227 98.0104 19.0213 99.1838 19.832C100.357 20.6213 101.808 21.016 103.536 21.016C105.328 21.016 106.746 20.6107 107.792 19.8C108.858 18.968 109.562 17.8693 109.904 16.504H112.88C112.432 18.6587 111.397 20.344 109.776 21.56C108.176 22.776 106.096 23.384 103.536 23.384ZM114.804 23L123.06 0.599998H125.908L134.132 23H131.284L129.236 17.24H119.7L117.62 23H114.804ZM120.5 15.064H128.436L124.468 3.992L120.5 15.064ZM137.462 23V0.599998H144.086C145.664 0.599998 147.008 0.834665 148.118 1.304C149.227 1.752 150.08 2.43467 150.678 3.352C151.275 4.26933 151.574 5.432 151.574 6.84C151.574 8.58933 151.115 9.912 150.198 10.808C149.302 11.704 148.075 12.2907 146.518 12.568L152.95 23H149.622L143.862 13.08H140.15V23H137.462ZM140.15 10.808H144.022C145.216 10.808 146.166 10.6693 146.87 10.392C147.574 10.0933 148.075 9.64533 148.374 9.048C148.672 8.45067 148.822 7.71467 148.822 6.84C148.822 5.944 148.672 5.19733 148.374 4.6C148.075 4.00267 147.574 3.56533 146.87 3.288C146.166 2.98933 145.216 2.84 144.022 2.84H140.15V10.808ZM156.431 23V0.599998H170.287V2.808H159.119V10.072H168.879V12.248H159.119V20.792H170.287V23H156.431Z" fill="black"/>
</svg>
