<svg xmlns="http://www.w3.org/2000/svg" fill="none" viewBox="0 0 110 174" height="174" width="110">
<g clip-path="url(#clip0_130_64)">
<path fill="#B9E0EE" d="M37.1001 90.9994C35.5001 89.5994 34.5001 87.4994 34.6001 85.3994C34.6001 84.6994 34.8001 83.8994 35.2001 83.3994C35.6001 82.7994 36.4001 82.4994 37.1001 82.6994C37.9001 82.9994 38.3001 83.8994 38.5001 84.7994C39.0001 86.9994 38.9001 89.1994 38.3001 91.3994"></path>
<path fill="#FFB5A5" d="M96.8002 130.899C84.9002 128.899 70.4002 135.499 67.4002 132.699C64.4002 129.899 66.3002 111.399 66.3002 111.399C66.4002 111.499 59.4001 111.799 54.6001 111.899C49.8001 111.699 42.7002 111.499 42.9002 111.399C42.9002 111.399 44.8001 129.799 41.8001 132.699C38.8001 135.499 24.3001 128.899 12.4001 130.899C0.50015 132.899 -0.19985 140.899 0.20015 153.099C0.60015 165.299 2.90015 173.599 2.90015 173.599H50.2001H59.0001H106.3C106.3 173.599 108.6 165.299 109 153.099C109.4 140.899 108.7 132.899 96.8002 130.899Z"></path>
<path fill="#CBC2BF" d="M47.1001 119C51.4001 120.3 54.3001 120.3 58.8001 119.9C61.1001 119.7 63.7001 118.9 65.8001 118C66.0001 114.3 66.3001 111.3 66.3001 111.3C66.4001 111.4 59.4001 111.7 54.6001 111.8C49.8001 111.6 42.7001 111.4 42.9001 111.3C42.9001 111.3 43.2001 113.9 43.3001 117.2C44.1001 117.6 46.2001 118.7 47.1001 119Z"></path>
<path fill="#FF5B38" d="M97.1004 130.9C94.7004 130.5 92.2004 130.4 89.7004 130.6C88.5004 135.1 85.7004 139.3 82.2004 142.3C75.4004 148.2 66.9004 150.1 58.2004 150.9C47.4004 151.8 35.3004 149.6 27.0004 142.3C23.5004 139.3 20.6004 135.1 19.5004 130.6C17.0004 130.5 14.5004 130.5 12.1004 130.9C4.50039 132.2 1.50039 135.9 0.400391 141.6C2.40039 141.5 4.40039 142.2 6.10039 143C9.00039 144.4 11.3004 146.4 13.3004 148.8C17.6004 154 20.6004 160.9 20.8004 167.7C20.8004 169.7 20.6004 171.7 20.3004 173.7H44.9004H57.8004H89.1004C88.8004 171.7 88.6004 169.7 88.6004 167.7C88.7004 160.9 91.7004 154 96.1004 148.8C98.1004 146.4 100.4 144.3 103.3 143C105 142.2 107.1 141.5 109 141.6C107.7 135.9 104.7 132.2 97.1004 130.9Z"></path>
<path fill="#FFB5A5" d="M86.8999 79.0998C86.8999 79.0998 89.2999 67.3998 92.4999 67.1998C95.5999 66.8998 97.1999 77.0998 93.5999 82.8998C89.8999 88.6998 85.8999 87.1998 85.8999 87.1998L86.8999 79.0998Z"></path>
<path fill="#FFB5A5" d="M22.1 79.0992C22.1 79.0992 19.7 67.3992 16.5 67.1992C13.3 66.9992 11.8 77.0992 15.4 82.8992C19 88.6992 23.1 87.1992 23.1 87.1992L22.1 79.0992Z"></path>
<path fill="#FFB5A5" d="M87.3 60.1995C87.1 55.0995 73.5 38.0995 62 37.2995C58.7 37.0995 56.3 37.0995 54.6 37.1995C52.8 37.0995 50.4 37.0995 47.2 37.2995C35.6 38.0995 22 55.0995 21.7 60.1995C21.4 65.3995 20.9 89.1995 22.8 94.9995C24.7 100.799 28.9 104.599 37.9 111.799C47.9 119.799 61.1 119.899 71.2 111.799C80.1 104.599 84.4 100.799 86.3 94.9995C88.2 89.1995 87.6 65.3995 87.3 60.1995Z"></path>
<path fill="#CF7F5D" d="M38.0999 30.9999C38.0999 30.9999 27.8999 16.9999 35.2999 8.39989C42.6999 -0.200115 60.4999 -3.30011 70.0999 4.59989C79.6999 12.4999 76.4999 26.9999 72.7999 30.8999C69.1999 34.7999 38.0999 30.9999 38.0999 30.9999Z"></path>
<path fill="#6B5148" d="M75.4004 20.7999C67.8004 15.5999 58.2004 14.3999 49.2004 15.4999C45.5004 15.9999 41.8004 16.7999 38.4004 18.2999C36.7004 19.0999 34.9004 20.0999 33.4004 21.3999C34.9004 26.6999 38.1004 30.9999 38.1004 30.9999C38.1004 30.9999 69.2004 34.7999 72.8004 30.8999C74.4004 29.1999 75.8004 25.5999 76.3004 21.4999C76.0004 21.1999 75.7004 20.9999 75.4004 20.7999Z"></path>
<path fill="#CF7F5D" d="M21.3002 77.2C21.3002 77.2 17.0002 69.6 19.0002 52.8C21.0002 36 32.3002 23 48.7002 20.8C65.1002 18.6 80.8002 25.4 86.7002 38C92.5002 50.6 90.5002 67.7 89.3002 72.6C88.1002 77.5 87.0002 78.7 87.0002 78.7C87.0002 78.7 88.1002 62.2 78.7002 51.3C69.3002 40.4 51.6002 39.3 43.0002 42.7C35.9002 45.5 29.4002 50.5 25.9002 57.5C23.0002 63.3 21.8002 70.7 21.3002 77.2Z"></path>
<path fill="#C1B6B2" d="M24.8001 56.3994C24.1001 55.7994 23.5001 54.9994 23.0001 54.1994C22.5001 53.3994 22.1001 52.4994 21.8001 51.5994C21.7001 51.1994 21.6001 50.7994 21.5001 50.2994C21.4001 49.8994 21.2001 49.4994 21.1001 49.0994C21.1001 48.9994 20.8001 48.9994 20.8001 49.0994C20.7001 49.4994 20.6001 49.9994 20.6001 50.3994C20.7001 50.8994 20.8001 51.2994 20.9001 51.7994C21.2001 52.7994 21.7001 53.6994 22.2001 54.5994C22.7001 55.4994 23.4001 56.2994 24.2001 56.9994C24.6001 57.3994 25.1001 57.6994 25.6001 57.9994C25.7001 57.7994 25.8001 57.5994 25.9001 57.3994C25.9001 57.2994 26.0001 57.2994 26.0001 57.1994C25.6001 56.9994 25.2001 56.7994 24.8001 56.3994Z"></path>
<path fill="#C1B6B2" d="M30.2 43.1998C29.2 41.0998 28.9 38.4998 29.8 36.3998C29.8 36.2998 29.7 36.2998 29.7 36.2998C29 37.2998 28.5 38.4998 28.5 39.6998C28.5 40.8998 28.8 42.1998 29.3 43.2998C30.2 45.1998 31.6 47.0998 33.3 48.3998C33.5 48.1998 33.7 48.0998 33.9 47.8998C32.5 46.4998 31.1 45.0998 30.2 43.1998Z"></path>
<path fill="#C1B6B2" d="M44.0003 42.3995C43.0003 40.8995 42.2003 39.2995 41.6003 37.6995C41.2003 36.4995 40.9003 35.2995 40.8003 33.9995C40.7003 32.6995 40.6003 31.3995 40.5003 30.1995C40.5003 30.0995 40.3003 29.9995 40.3003 30.1995C40.0003 31.5995 39.8003 32.7995 39.8003 34.1995C39.9003 35.5995 40.1003 36.7995 40.6003 38.0995C41.2003 39.6995 41.9003 41.3995 43.1003 42.7995C43.5003 42.5995 43.8003 42.4995 44.0003 42.3995Z"></path>
<path fill="#C1B6B2" d="M87.9003 49.1995C87.8003 49.5995 87.6003 49.9995 87.5003 50.3995C87.4003 50.7995 87.3003 51.2995 87.2003 51.6995C86.9003 52.5995 86.5003 53.4995 86.0003 54.2995C85.5003 55.0995 84.9003 55.7995 84.2003 56.4995C83.8003 56.8995 83.3003 57.1995 82.8003 57.4995C82.9003 57.7995 83.1003 57.9995 83.2003 58.2995C83.8003 57.9995 84.3003 57.5995 84.8003 57.1995C85.6003 56.4995 86.2003 55.6995 86.8003 54.7995C87.3003 53.8995 87.8003 52.9995 88.1003 51.9995C88.2003 51.5995 88.4003 51.0995 88.4003 50.5995C88.5003 50.0995 88.3003 49.6995 88.2003 49.2995C88.1003 49.0995 87.9003 49.0995 87.9003 49.1995Z"></path>
<path fill="#C1B6B2" d="M80.5001 39.7992C80.5001 38.4992 80.0001 37.2992 79.3001 36.2992C79.3001 36.1992 79.1001 36.2992 79.2001 36.3992C80.1001 38.5992 79.9001 41.1992 78.8001 43.1992C77.9001 44.9992 76.5001 46.3992 75.1001 47.8992C75.3001 48.0992 75.5001 48.1992 75.7001 48.3992C77.4001 47.0992 78.8001 45.2992 79.7001 43.2992C80.2001 42.1992 80.5001 40.9992 80.5001 39.7992Z"></path>
<path fill="#C1B6B2" d="M68.9 38.2992C69.4 37.0992 69.6 35.7992 69.7 34.4992C69.8 33.0992 69.5 31.7992 69.3 30.3992C69.3 30.2992 69.1 30.2992 69.1 30.3992C69 31.6992 68.9 32.9992 68.8 34.1992C68.7 35.4992 68.5 36.6992 68 37.8992C67.4 39.5992 66.5 41.2992 65.5 42.8992C65.8 42.9992 66 43.0992 66.3 43.1992C67.5 41.7992 68.3 39.9992 68.9 38.2992Z"></path>
<path fill="#C1B6B2" d="M55.0001 41.0995C55.7001 39.1995 56.1001 37.2995 56.1001 35.1995C56.1001 33.8995 56.1001 32.5995 56.0001 31.2995C55.9001 30.0995 55.7001 28.6995 55.0001 27.6995C54.9001 27.5995 54.7001 27.5995 54.7001 27.7995C54.8001 29.0995 55.1001 30.2995 55.1001 31.5995C55.2001 32.7995 55.2001 33.9995 55.2001 35.2995C55.2001 37.3995 54.6001 39.2995 54.1001 41.1995C54.4001 40.9995 54.7001 40.9995 55.0001 41.0995Z"></path>
<path fill="#CF7F5D" d="M61.2003 66.3002C61.2003 66.3002 59.8003 65.6002 62.0003 63.7002C64.2003 61.8002 69.0003 61.2002 73.4003 62.3002C77.8003 63.4002 81.6003 65.5002 81.0003 66.3002C80.4003 67.1002 73.8003 65.8002 69.1003 66.1002C64.4003 66.4002 61.2003 66.3002 61.2003 66.3002Z"></path>
<path fill="#C1B6B2" d="M56.4999 91.0998C54.9999 92.5998 52.3999 92.8998 50.3999 92.1998C49.7999 91.9998 47.6999 90.4998 48.9999 89.8998C49.6999 89.5998 50.3999 89.8998 51.0999 90.0998C51.6999 90.1998 52.1999 90.2998 52.7999 90.0998C52.9999 90.0998 53.0999 89.8998 53.0999 89.6998C53.1999 86.6998 53.1999 83.5998 53.1999 80.5998C53.1999 79.0998 53.1999 77.5998 53.1999 76.0998C53.1999 74.4998 53.0999 72.9998 52.9999 71.3998C52.9999 71.0998 52.4999 71.0998 52.4999 71.3998C52.4999 72.8998 52.2999 74.3998 52.2999 75.8998C52.2999 77.4998 52.2999 78.9998 52.2999 80.5998C52.2999 83.4998 52.1999 86.3998 52.0999 89.3998C50.7999 89.4998 48.5999 88.3998 47.7999 89.7998C47.1999 90.7998 48.2999 91.9998 49.0999 92.5998C51.2999 93.9998 55.2999 93.7998 56.8999 91.5998C57.2999 91.0998 56.7999 90.7998 56.4999 91.0998Z"></path>
<path fill="#FF7C60" d="M46.9004 102.5C46.9004 102.5 49.3004 97.9002 51.6004 98.6002C53.9004 99.3002 54.4004 101 54.4004 101C54.4004 101 56.8004 96.4002 58.6004 97.7002C60.4004 99.0002 60.4004 102.3 60.4004 102.3C60.4004 102.3 57.4004 103.1 54.2004 103C50.6004 102.9 47.7004 102.1 47.5004 102.5C47.3004 102.9 50.7004 104.2 54.1004 104.4C57.5004 104.6 60.3004 103.1 60.3004 103.1C60.3004 103.1 59.4004 109.6 54.4004 109.2C49.4004 108.8 46.9004 102.5 46.9004 102.5Z"></path>
<path fill="white" d="M61.4004 77.6998C61.4004 77.6998 66.2004 81.9998 70.0004 81.4998C73.8004 80.9998 76.3004 77.9998 76.7004 76.6998C77.1004 75.3998 77.1004 74.8998 77.1004 74.8998C77.1004 74.8998 74.7004 72.7998 70.1004 72.9998C65.5004 73.1998 64.3004 74.4998 63.3004 75.3998C62.4004 76.2998 61.4004 77.6998 61.4004 77.6998Z"></path>
<path fill="#6B5148" d="M71.7005 72.3994C71.7005 72.3994 73.1005 72.9994 74.4005 71.6994C75.7005 70.3994 75.8005 68.8994 75.8005 68.8994C75.8005 68.8994 76.1005 70.3994 75.5005 71.7994C75.1005 72.6994 74.4005 73.2994 74.4005 73.2994C74.4005 73.2994 75.8005 72.9994 77.1005 71.8994C78.4005 70.7994 79.2005 69.3994 79.2005 69.3994C79.2005 69.3994 79.5005 70.5994 78.0005 72.2994C76.5005 73.9994 75.5005 73.9994 75.5005 73.9994C75.5005 73.9994 77.2005 74.4994 78.7005 74.0994C80.1005 73.5994 81.0005 72.4994 81.0005 72.4994C81.0005 72.4994 80.7005 74.2994 79.3005 74.8994C77.9005 75.4994 76.9005 74.9994 76.9005 74.9994C76.9005 74.9994 74.1005 73.3994 72.7005 73.2994C71.1005 72.9994 71.7005 72.3994 71.7005 72.3994Z"></path>
<path fill="#6B5148" d="M76.8005 74.5996C76.8005 74.5996 76.6005 77.9996 73.7005 79.7996C70.8005 81.5996 68.0005 81.2996 68.0005 81.2996C68.0005 81.2996 70.7005 82.3996 74.0005 80.0996C77.3005 77.8996 77.6005 75.0996 77.6005 75.0996L76.8005 74.5996Z"></path>
<path fill="#6B5148" d="M61.4004 77.6994C61.4004 77.6994 63.7004 74.1994 69.4004 73.7994C75.1004 73.3994 78.1004 75.3994 78.1004 75.3994C78.1004 75.3994 73.3004 70.7994 68.4004 71.8994C62.9004 73.2994 61.4004 77.6994 61.4004 77.6994Z"></path>
<path fill="#CF7F5D" d="M48.0003 66.3002C48.0003 66.3002 49.4003 65.6002 47.2003 63.7002C45.0003 61.8002 40.2003 61.2002 35.8003 62.3002C31.4003 63.4002 27.6003 65.5002 28.2003 66.3002C28.8003 67.1002 35.4003 65.8002 40.1003 66.1002C44.8003 66.3002 48.0003 66.3002 48.0003 66.3002Z"></path>
<path fill="white" d="M47.9002 77.6998C47.9002 77.6998 43.1002 81.9998 39.3002 81.4998C35.5002 80.9998 33.0002 77.9998 32.6002 76.6998C32.2002 75.3998 32.2002 74.8998 32.2002 74.8998C32.2002 74.8998 34.6002 72.7998 39.2002 72.9998C43.8002 73.1998 45.0002 74.4998 46.0002 75.3998C46.9002 76.2998 47.9002 77.6998 47.9002 77.6998Z"></path>
<path fill="#6B5148" d="M37.5002 72.3994C37.5002 72.3994 36.1002 72.9994 34.8002 71.6994C33.5002 70.3994 33.4002 68.8994 33.4002 68.8994C33.4002 68.8994 33.1002 70.3994 33.7002 71.7994C34.1002 72.6994 34.8002 73.2994 34.8002 73.2994C34.8002 73.2994 33.4002 72.9994 32.1002 71.8994C30.8002 70.7994 30.0002 69.3994 30.0002 69.3994C30.0002 69.3994 29.7002 70.5994 31.2002 72.2994C32.7002 73.9994 33.7002 73.9994 33.7002 73.9994C33.7002 73.9994 32.0002 74.4994 30.5002 74.0994C29.1002 73.5994 28.2002 72.4994 28.2002 72.4994C28.2002 72.4994 28.5002 74.2994 29.9002 74.8994C31.3002 75.4994 32.3002 74.9994 32.3002 74.9994C32.3002 74.9994 35.1002 73.3994 36.5002 73.2994C38.1002 72.9994 37.5002 72.3994 37.5002 72.3994Z"></path>
<path fill="#6B5148" d="M32.4001 74.5996C32.4001 74.5996 32.6001 77.9996 35.5001 79.7996C38.4001 81.5996 41.2001 81.2996 41.2001 81.2996C41.2001 81.2996 38.5001 82.3996 35.2001 80.0996C31.9001 77.8996 31.6001 75.0996 31.6001 75.0996L32.4001 74.5996Z"></path>
<path fill="#6B5148" d="M37.9001 73.3994C37.7001 73.5994 37.7001 73.6994 37.6001 73.7994C36.8001 75.1994 36.2001 77.0994 37.2001 78.4994C38.1001 79.8994 39.9001 80.7994 41.4001 79.6994C43.2001 78.3994 43.9001 74.5994 41.6001 73.2994C40.7001 72.7994 38.7001 72.6994 37.9001 73.3994Z"></path>
<path fill="#6B5148" d="M47.9002 77.6994C47.9002 77.6994 45.6002 74.1994 39.9002 73.7994C34.2002 73.3994 31.2002 75.3994 31.2002 75.3994C31.2002 75.3994 36.0002 70.7994 40.9002 71.8994C46.3002 73.2994 47.9002 77.6994 47.9002 77.6994Z"></path>
<path fill="#6B5148" d="M67.4001 73.3994C67.2001 73.5994 67.2001 73.6994 67.1001 73.7994C66.3001 75.1994 65.7001 77.0994 66.7001 78.4994C67.6001 79.8994 69.4001 80.7994 70.9001 79.6994C72.7001 78.3994 73.4001 74.5994 71.1001 73.2994C70.2001 72.7994 68.2001 72.6994 67.4001 73.3994Z"></path>
<path fill="white" d="M38.9004 76.5994C39.4527 76.5994 39.9004 76.1069 39.9004 75.4994C39.9004 74.8919 39.4527 74.3994 38.9004 74.3994C38.3481 74.3994 37.9004 74.8919 37.9004 75.4994C37.9004 76.1069 38.3481 76.5994 38.9004 76.5994Z"></path>
<path fill="white" d="M68.4004 76.5994C68.9527 76.5994 69.4004 76.1069 69.4004 75.4994C69.4004 74.8919 68.9527 74.3994 68.4004 74.3994C67.8481 74.3994 67.4004 74.8919 67.4004 75.4994C67.4004 76.1069 67.8481 76.5994 68.4004 76.5994Z"></path>
<path fill="#E1F2F8" d="M33.4 86.8002C34.1 87.6002 35.2 87.8002 36.1 88.2002C37.9 89.0002 39.1 90.6002 39.8 92.5002C40.5 94.3002 40.6 96.3002 40.6 98.2002C40.6 99.7002 40.4 101.3 41 102.6C41.9 104.6 44.3 105.8 44.8 108C45.2 110.1 43.5 112 42 113.5C41.8 113.7 41.5 114 41.2 114C41 114 40.8 113.9 40.6 113.8C36.1 111.5 32.6 107.5 30.3 103.1C28 98.6002 26.8 93.7002 26.3 88.7002C26.1 86.8002 26.1 83.9002 28.4 83.6002C29.3 83.5002 30.5 83.7002 31.3 84.2002C32.6 84.7002 32.7 85.9002 33.4 86.8002Z"></path>
<path fill="#E1F2F8" d="M16.6001 90.2006C15.2001 88.8006 13.6001 87.4006 11.6001 87.0006C11.4001 87.0006 11.2001 86.9006 11.0001 87.1006C10.9001 87.2006 10.8001 87.3006 10.8001 87.5006C10.5001 88.7006 11.2001 90.0006 12.3001 90.8006C13.3001 91.6006 14.6001 92.0006 15.8001 92.3006C16.6001 92.5006 18.6001 93.5006 19.2001 93.0006C18.6001 92.0006 17.5001 91.1006 16.6001 90.2006Z"></path>
<path fill="#E1F2F8" d="M17.7999 97.7005C16.3999 97.5005 14.8999 97.8005 13.4999 98.1005C12.7999 98.3005 12.1999 98.6005 11.5999 99.0005C10.9999 99.4005 10.5999 99.9005 10.1999 100.501C9.89994 100.901 9.79994 101.301 9.69994 101.801C9.59994 102.101 9.59994 102.501 9.89994 102.701C10.2999 103.001 10.9999 102.801 11.3999 102.601C11.9999 102.301 12.5999 101.901 13.0999 101.401C13.6999 100.801 14.2999 100.201 14.9999 99.7005C15.3999 99.4005 15.7999 99.1005 16.2999 98.8005C16.7999 98.5005 17.4999 98.1005 17.9999 98.0005C18.0999 98.0005 18.0999 97.7005 17.7999 97.7005Z"></path>
<path fill="#E1F2F8" d="M17.5998 104.8C16.3998 104.7 15.0998 106 14.4998 106.9C13.6998 108.2 13.1998 109.7 13.0998 111.2C12.9998 111.9 12.9998 113.6 14.1998 113.3C15.3998 113 15.9998 111.5 16.2998 110.4C16.4998 109.5 16.5998 108.6 16.8998 107.8C16.9998 107.4 17.1998 106.9 17.2998 106.5C17.4998 106 17.6998 105.6 17.8998 105.2C17.8998 105.1 17.8998 105.1 17.8998 105C17.7998 104.9 17.7998 104.8 17.5998 104.8Z"></path>
<path fill="#FFC9BD" d="M31.8001 173.599C32.5001 169.899 38.3001 116.099 38.3001 113.499C38.3001 110.799 36.5001 107.399 34.8001 102.299C33.2001 97.1994 34.2001 92.6994 33.5001 89.6994C32.8001 86.5994 31.7001 87.4994 31.7001 87.4994C31.7001 87.4994 32.4001 81.4994 31.3001 80.3994C30.2001 79.2994 29.2001 81.2994 29.2001 81.2994C29.2001 81.2994 28.9001 78.3994 27.7001 78.3994C26.5001 78.3994 25.5001 82.3994 25.5001 82.3994C25.5001 82.3994 25.4001 81.0994 24.5001 80.8994C23.6001 80.6994 23.5001 82.0994 22.9001 84.5994C22.3001 86.9994 20.1001 93.9994 20.0001 101.799C19.9001 109.599 26.0001 121.699 26.0001 121.699L13.6001 173.799H31.8001V173.599Z"></path>
<path fill="#C1B6B2" d="M31.4005 90.5988C31.5005 89.4988 31.8005 88.3988 32.0005 87.2988C31.8005 87.2988 31.7005 87.3988 31.7005 87.3988C31.7005 87.3988 31.8005 86.6988 31.8005 85.7988C31.4005 87.4988 31.3005 89.1988 31.1005 90.8988C30.9005 92.2988 30.7005 93.6988 30.6005 95.1988C30.5005 96.3988 30.5005 97.5988 30.5005 98.7988C30.5005 99.7988 30.5005 100.899 30.8005 101.799C30.8005 101.899 31.0005 101.899 31.0005 101.799C31.1005 100.799 30.8005 99.7988 30.8005 98.7988C30.8005 97.5988 30.9005 96.3988 30.9005 95.1988C31.1005 93.6988 31.2005 92.0988 31.4005 90.5988Z"></path>
<path fill="#C1B6B2" d="M27.0004 95.699C26.9004 97.799 26.9004 100.099 27.3004 102.099C27.3004 102.199 27.6004 102.199 27.6004 102.099C27.0004 94.899 28.2004 87.599 29.8004 80.499C29.5004 80.899 29.3004 81.299 29.3004 81.299C29.3004 81.299 29.3004 81.099 29.2004 80.699C29.1004 81.399 29.0004 82.099 28.9004 82.699C28.5004 84.699 28.1004 86.799 27.9004 88.799C27.4004 91.099 27.1004 93.399 27.0004 95.699Z"></path>
<path fill="#C1B6B2" d="M23.9003 101.799C24.0003 100.899 23.7003 100.099 23.7003 99.1988C23.7003 98.1988 23.8003 97.1988 23.8003 96.1988C23.9003 94.3988 24.1003 92.4988 24.3003 90.6988C24.5003 88.7988 24.8003 86.8988 25.1003 84.8988C25.3003 83.6988 25.5003 82.4988 25.6003 81.2988C25.4003 81.7988 25.3003 82.1988 25.3003 82.1988C25.3003 82.1988 25.3003 81.6988 25.0003 81.2988C24.5003 84.3988 24.1003 87.4988 23.8003 90.5988C23.6003 92.5988 23.4003 94.4988 23.3003 96.4988C23.2003 98.1988 23.0003 99.9988 23.5003 101.699C23.7003 101.999 23.9003 101.899 23.9003 101.799Z"></path>
<path fill="#E1F2F8" d="M75.9002 86.8002C75.2002 87.6002 74.1002 87.8002 73.2002 88.2002C71.4002 89.0002 70.2002 90.6002 69.5002 92.5002C68.8002 94.3002 68.7002 96.3002 68.7002 98.2002C68.7002 99.7002 68.9002 101.3 68.3002 102.6C67.4002 104.6 65.0002 105.8 64.5002 108C64.1002 110.1 65.8002 112 67.3002 113.5C67.5002 113.7 67.8002 114 68.1002 114C68.3002 114 68.5002 113.9 68.7002 113.8C73.2002 111.5 76.7002 107.5 79.0002 103.1C81.3002 98.6002 82.5002 93.7002 83.0002 88.7002C83.2002 86.8002 83.2002 83.9002 80.9002 83.6002C80.0002 83.5002 78.8002 83.7002 78.0002 84.2002C76.8002 84.7002 76.6002 85.9002 75.9002 86.8002Z"></path>
<path fill="#E1F2F8" d="M92.7001 90.2006C94.1001 88.8006 95.7001 87.4006 97.7001 87.0006C97.9001 87.0006 98.1001 86.9006 98.3001 87.1006C98.4001 87.2006 98.5001 87.3006 98.5001 87.5006C98.8001 88.7006 98.1001 90.0006 97.0001 90.8006C96.0001 91.6006 94.7001 92.0006 93.5001 92.3006C92.7001 92.5006 90.7001 93.5006 90.1001 93.0006C90.7001 92.0006 91.8001 91.1006 92.7001 90.2006Z"></path>
<path fill="#E1F2F8" d="M91.3 98.0005C91.8 98.1005 92.5 98.5005 93 98.8005C93.4 99.1005 93.8 99.4005 94.3 99.7005C95 100.201 95.6 100.801 96.2 101.401C96.7 101.901 97.2 102.301 97.9 102.601C98.3 102.801 99 103.001 99.4 102.701C99.7 102.501 99.7 102.101 99.6 101.801C99.5 101.301 99.4 100.901 99.1 100.501C98.7 99.9005 98.3 99.4005 97.7 99.0005C97.1 98.6005 96.5 98.3005 95.8 98.1005C94.4 97.7005 92.9 97.5005 91.5 97.7005C91.2 97.7005 91.2 98.0005 91.3 98.0005Z"></path>
<path fill="#E1F2F8" d="M91.6 105C91.6 105 91.5 105.1 91.6 105.2C91.8 105.7 92 106.1 92.2 106.5C92.4 106.9 92.5 107.4 92.6 107.8C92.8 108.7 93 109.6 93.2 110.4C93.4 111.5 94 113 95.3 113.3C96.5 113.6 96.5 111.9 96.4 111.2C96.2 109.7 95.8 108.2 95 106.9C94.4 106 93.1 104.7 91.9 104.8C91.5 104.8 91.5 104.9 91.6 105Z"></path>
<path fill="#FFC9BD" d="M77.2002 173.599C76.5002 169.899 70.7002 116.099 70.7002 113.499C70.7002 110.799 72.5002 107.399 74.2002 102.299C75.8002 97.1994 74.8002 92.6994 75.5002 89.6994C76.2002 86.5994 77.3002 87.4994 77.3002 87.4994C77.3002 87.4994 76.6002 81.4994 77.7002 80.3994C78.8002 79.2994 79.8002 81.2994 79.8002 81.2994C79.8002 81.2994 80.1002 78.3994 81.3002 78.3994C82.5002 78.3994 83.5002 82.3994 83.5002 82.3994C83.5002 82.3994 83.6002 81.0994 84.5002 80.8994C85.4002 80.6994 85.5002 82.0994 86.1002 84.5994C86.7002 86.9994 88.9002 93.9994 89.0002 101.799C89.1002 109.599 83.0002 121.699 83.0002 121.699L95.4002 173.799H77.2002V173.599Z"></path>
<path fill="#C1B6B2" d="M77.6 90.5988C77.5 89.4988 77.2 88.3988 77 87.2988C77.2 87.2988 77.3 87.3988 77.3 87.3988C77.3 87.3988 77.2 86.6988 77.2 85.7988C77.6 87.4988 77.7 89.1988 77.9 90.8988C78.1 92.2988 78.3 93.6988 78.4 95.1988C78.5 96.3988 78.5 97.5988 78.5 98.7988C78.5 99.7988 78.5 100.899 78.2 101.799C78.2 101.899 78 101.899 78 101.799C77.9 100.799 78.2 99.7988 78.2 98.7988C78.2 97.5988 78.1 96.3988 78.1 95.1988C78 93.6988 77.9 92.0988 77.6 90.5988Z"></path>
<path fill="#C1B6B2" d="M82.0998 95.699C82.1998 97.799 82.1998 100.099 81.7998 102.099C81.7998 102.199 81.4998 102.199 81.4998 102.099C82.0998 94.899 80.8998 87.599 79.2998 80.499C79.5998 80.899 79.7998 81.299 79.7998 81.299C79.7998 81.299 79.7998 81.099 79.8998 80.699C79.9998 81.399 80.0998 82.099 80.1998 82.699C80.5998 84.699 80.9998 86.799 81.1998 88.799C81.5998 91.099 81.9998 93.399 82.0998 95.699Z"></path>
<path fill="#C1B6B2" d="M85.2 101.799C85.1 100.899 85.4 100.099 85.4 99.1988C85.4 98.1988 85.3 97.1988 85.3 96.1988C85.2 94.3988 85 92.4988 84.8 90.6988C84.6 88.7988 84.3 86.8988 84 84.8988C83.8 83.6988 83.6 82.4988 83.5 81.2988C83.7 81.7988 83.8 82.1988 83.8 82.1988C83.8 82.1988 83.8 81.6988 84.1 81.2988C84.6 84.3988 85 87.4988 85.3 90.5988C85.5 92.5988 85.7 94.4988 85.8 96.4988C85.9 98.1988 86.1 99.9988 85.6 101.699C85.4 101.999 85.2 101.899 85.2 101.799Z"></path>
</g>
<defs>
<clipPath id="clip0_130_64">
<rect fill="white" height="173.6" width="109.1"></rect>
</clipPath>
</defs>
</svg>
