<svg xmlns="http://www.w3.org/2000/svg" fill="none" viewBox="0 0 110 174" height="174" width="110">
<g clip-path="url(#clip0_130_5)">
<path fill="#FFB5A5" d="M96.8002 130.9C84.9002 128.9 70.4002 135.5 67.4002 132.7C64.4002 129.9 66.3002 111.4 66.3002 111.4C66.4002 111.5 59.4001 111.8 54.6001 111.9C49.8001 111.7 42.7002 111.5 42.9002 111.4C42.9002 111.4 44.8001 129.8 41.8001 132.7C38.8001 135.5 24.3001 128.9 12.4001 130.9C0.50015 132.9 -0.19985 140.9 0.20015 153.1C0.60015 165.3 2.90015 173.6 2.90015 173.6H50.2001H59.0001H106.3C106.3 173.6 108.6 165.3 109 153.1C109.4 140.9 108.7 132.9 96.8002 130.9Z"></path>
<path fill="#CBC2BF" d="M47.1001 119.001C51.4001 120.301 54.3001 120.301 58.8001 119.901C61.1001 119.701 63.7001 118.901 65.8001 118.001C66.0001 114.301 66.3001 111.301 66.3001 111.301C66.4001 111.401 59.4001 111.701 54.6001 111.801C49.8001 111.601 42.7001 111.401 42.9001 111.301C42.9001 111.301 43.2001 113.901 43.3001 117.201C44.1001 117.601 46.2001 118.701 47.1001 119.001Z"></path>
<path fill="#FF5B38" d="M97.1004 130.9C94.7004 130.5 92.2004 130.4 89.7004 130.6C88.5004 135.1 85.7004 139.3 82.2004 142.3C75.4004 148.2 66.9004 150.1 58.2004 150.9C47.4004 151.8 35.3004 149.6 27.0004 142.3C23.5004 139.3 20.6004 135.1 19.5004 130.6C17.0004 130.5 14.5004 130.5 12.1004 130.9C4.50039 132.2 1.50039 135.9 0.400391 141.6C2.40039 141.5 4.40039 142.2 6.10039 143C9.00039 144.4 11.3004 146.4 13.3004 148.8C17.6004 154 20.6004 160.9 20.8004 167.7C20.8004 169.7 20.6004 171.7 20.3004 173.7H44.9004H57.8004H89.1004C88.8004 171.7 88.6004 169.7 88.6004 167.7C88.7004 160.9 91.7004 154 96.1004 148.8C98.1004 146.4 100.4 144.3 103.3 143C105 142.2 107.1 141.5 109 141.6C107.7 135.9 104.7 132.2 97.1004 130.9Z"></path>
<path fill="#FFB5A5" d="M86.8999 79.1002C86.8999 79.1002 89.2999 67.4002 92.4999 67.2002C95.6999 67.0002 97.1999 77.1002 93.5999 82.9002C89.9999 88.7002 85.8999 87.2002 85.8999 87.2002L86.8999 79.1002Z"></path>
<path fill="#FFB5A5" d="M22.1 79.1002C22.1 79.1002 19.7 67.4002 16.5 67.2002C13.3 67.0002 11.8 77.1002 15.4 82.9002C19 88.7002 23.1 87.2002 23.1 87.2002L22.1 79.1002Z"></path>
<path fill="#FFB5A5" d="M87.3 60.2005C87.1 55.1005 73.5 38.1005 62 37.3005C58.7 37.1005 56.3 37.1005 54.6 37.2005C52.8 37.1005 50.4 37.1005 47.2 37.3005C35.6 38.1005 22 55.1005 21.7 60.2005C21.4 65.3005 20.9 89.2004 22.8 95.0005C24.7 100.8 28.9 104.6 37.9 111.8C47.9 119.8 61.1 119.9 71.2 111.8C80.1 104.6 84.4 100.8 86.3 95.0005C88.2 89.2004 87.6 65.4005 87.3 60.2005Z"></path>
<path fill="#CF7F5D" d="M38.0999 31.0003C38.0999 31.0003 27.8999 17.0003 35.2999 8.40034C42.5999 -0.299657 60.4999 -3.29966 70.0999 4.60034C79.6999 12.5003 76.4999 27.0003 72.7999 30.9003C69.1999 34.8003 38.0999 31.0003 38.0999 31.0003Z"></path>
<path fill="#6B5148" d="M75.4004 20.7999C67.8004 15.5999 58.2004 14.3999 49.2004 15.4999C45.5004 15.9999 41.8004 16.7999 38.4004 18.2999C36.7004 19.0999 34.9004 20.0999 33.4004 21.3999C34.9004 26.6999 38.1004 30.9999 38.1004 30.9999C38.1004 30.9999 69.2004 34.7999 72.8004 30.8999C74.4004 29.1999 75.8004 25.5999 76.3004 21.4999C76.0004 21.1999 75.7004 20.9999 75.4004 20.7999Z"></path>
<path fill="#CF7F5D" d="M21.3002 77.2C21.3002 77.2 17.0002 69.6 19.0002 52.8C21.0002 36 32.3002 23 48.7002 20.8C65.1002 18.6 80.8002 25.4 86.7002 38C92.5002 50.6 90.5002 67.7 89.3002 72.6C88.1002 77.5 87.0002 78.7 87.0002 78.7C87.0002 78.7 88.1002 62.2 78.7002 51.3C69.3002 40.4 51.6002 39.3 43.0002 42.7C35.9002 45.5 29.4002 50.5 25.9002 57.5C23.0002 63.3 21.8002 70.7 21.3002 77.2Z"></path>
<path fill="#C1B6B2" d="M24.8001 56.4004C24.1001 55.8004 23.5001 55.0004 23.0001 54.2004C22.5001 53.4004 22.1001 52.5004 21.8001 51.6004C21.7001 51.2004 21.6001 50.8004 21.5001 50.3004C21.4001 49.9004 21.2001 49.5004 21.1001 49.1004C21.1001 49.0004 20.8001 49.0004 20.8001 49.1004C20.7001 49.5004 20.6001 50.0004 20.6001 50.4004C20.7001 50.9004 20.8001 51.3004 20.9001 51.8004C21.2001 52.8004 21.7001 53.7004 22.2001 54.6004C22.7001 55.5004 23.4001 56.3004 24.2001 57.0004C24.6001 57.4004 25.1001 57.7004 25.6001 58.0004C25.7001 57.8004 25.8001 57.6004 25.9001 57.4004C25.9001 57.3004 26.0001 57.3004 26.0001 57.2004C25.6001 57.0004 25.2001 56.8004 24.8001 56.4004Z"></path>
<path fill="#C1B6B2" d="M30.2 43.2008C29.2 41.1008 28.9 38.5008 29.8 36.4008C29.8 36.3008 29.7 36.3008 29.7 36.3008C29 37.3008 28.5 38.5008 28.5 39.7008C28.5 40.9008 28.8 42.2008 29.3 43.3008C30.2 45.2008 31.6 47.1008 33.3 48.4008C33.5 48.2008 33.7 48.1008 33.9 47.9008C32.5 46.5008 31.1 45.1008 30.2 43.2008Z"></path>
<path fill="#C1B6B2" d="M44.0003 42.4004C43.0003 40.9004 42.2003 39.3004 41.6003 37.7004C41.2003 36.5004 40.9003 35.3004 40.8003 34.0004C40.7003 32.7004 40.6003 31.4004 40.5003 30.2004C40.5003 30.1004 40.3003 30.0004 40.3003 30.2004C40.0003 31.6004 39.8003 32.8004 39.8003 34.2004C39.9003 35.6004 40.1003 36.8004 40.6003 38.1004C41.2003 39.7004 41.9003 41.4004 43.1003 42.8004C43.5003 42.6004 43.8003 42.5004 44.0003 42.4004Z"></path>
<path fill="#C1B6B2" d="M87.9003 49.2005C87.8003 49.6005 87.6003 50.0005 87.5003 50.4005C87.4003 50.8005 87.3003 51.3005 87.2003 51.7005C86.9003 52.6005 86.5003 53.5005 86.0003 54.3005C85.5003 55.1005 84.9003 55.8005 84.2003 56.5005C83.8003 56.9005 83.3003 57.2005 82.8003 57.5005C82.9003 57.8005 83.1003 58.0005 83.2003 58.3005C83.8003 58.0005 84.3003 57.6005 84.8003 57.2005C85.6003 56.5005 86.2003 55.7005 86.8003 54.8005C87.3003 53.9005 87.8003 53.0005 88.1003 52.0005C88.2003 51.6005 88.4003 51.1004 88.4003 50.6004C88.5003 50.1004 88.3003 49.7005 88.2003 49.3005C88.1003 49.1005 87.9003 49.1005 87.9003 49.2005Z"></path>
<path fill="#C1B6B2" d="M80.5001 39.8002C80.5001 38.5002 80.0001 37.3002 79.3001 36.3002C79.3001 36.2002 79.1001 36.3002 79.2001 36.4002C80.1001 38.6002 79.9001 41.2002 78.8001 43.2002C77.9001 45.0002 76.5001 46.4002 75.1001 47.9002C75.3001 48.1002 75.5001 48.2002 75.7001 48.4002C77.4001 47.1002 78.8001 45.3002 79.7001 43.3002C80.2001 42.2002 80.5001 41.0002 80.5001 39.8002Z"></path>
<path fill="#C1B6B2" d="M68.9 38.3002C69.4 37.1002 69.6 35.8002 69.7 34.5002C69.8 33.1002 69.5 31.8002 69.3 30.4002C69.3 30.3002 69.1 30.3002 69.1 30.4002C69 31.7002 68.9 33.0002 68.8 34.2002C68.7 35.5002 68.5 36.7002 68 37.9002C67.4 39.6002 66.5 41.3002 65.5 42.9002C65.8 43.0002 66 43.1002 66.3 43.2002C67.5 41.8002 68.3 40.0002 68.9 38.3002Z"></path>
<path fill="#C1B6B2" d="M55.0001 41.1004C55.7001 39.2004 56.1001 37.3005 56.1001 35.2005C56.1001 33.9005 56.1001 32.6005 56.0001 31.3005C55.9001 30.1005 55.7001 28.7005 55.0001 27.7005C54.9001 27.6005 54.7001 27.6005 54.7001 27.8005C54.8001 29.1005 55.1001 30.3005 55.1001 31.6005C55.2001 32.8005 55.2001 34.0005 55.2001 35.3005C55.2001 37.4005 54.6001 39.3005 54.1001 41.2005C54.4001 41.0005 54.7001 41.0004 55.0001 41.1004Z"></path>
<path fill="#CF7F5D" d="M61.2003 66.3002C61.2003 66.3002 59.8003 65.6002 62.0003 63.7002C64.2003 61.8002 69.0003 61.2002 73.4003 62.3002C77.8003 63.4002 81.6003 65.5002 81.0003 66.3002C80.4003 67.1002 73.8003 65.8002 69.1003 66.1002C64.4003 66.4002 61.2003 66.3002 61.2003 66.3002Z"></path>
<path fill="#C1B6B2" d="M56.4999 91.1008C54.9999 92.6008 52.3999 92.9008 50.3999 92.2008C49.7999 92.0008 47.6999 90.5008 48.9999 89.9008C49.6999 89.6008 50.3999 89.9008 51.0999 90.1008C51.6999 90.2008 52.1999 90.3008 52.7999 90.1008C52.9999 90.1008 53.0999 89.9008 53.0999 89.7008C53.1999 86.7008 53.1999 83.6008 53.1999 80.6008C53.1999 79.1008 53.1999 77.6008 53.1999 76.1008C53.1999 74.5008 53.0999 73.0008 52.9999 71.4008C52.9999 71.1008 52.4999 71.1008 52.4999 71.4008C52.4999 72.9008 52.2999 74.4008 52.2999 75.9008C52.2999 77.5008 52.2999 79.0008 52.2999 80.6008C52.2999 83.5008 52.1999 86.4008 52.0999 89.4008C50.7999 89.5008 48.5999 88.4008 47.7999 89.8008C47.1999 90.8008 48.2999 92.0008 49.0999 92.6008C51.2999 94.0008 55.2999 93.8008 56.8999 91.6008C57.2999 91.1008 56.7999 90.8008 56.4999 91.1008Z"></path>
<path fill="#FF7C60" d="M46.9004 102.5C46.9004 102.5 49.3004 97.9002 51.6004 98.6002C53.8004 99.3002 54.4004 101 54.4004 101C54.4004 101 56.8004 96.4002 58.6004 97.7002C60.3004 99.0002 60.4004 102.3 60.4004 102.3C60.4004 102.3 57.4004 103.1 54.2004 103C50.6004 102.9 47.7004 102.1 47.5004 102.5C47.3004 102.9 50.7004 104.2 54.1004 104.4C57.5004 104.6 60.3004 103.1 60.3004 103.1C60.3004 103.1 59.4004 109.6 54.4004 109.2C49.4004 108.9 46.9004 102.5 46.9004 102.5Z"></path>
<path fill="#CF7F5D" d="M48.0003 66.3002C48.0003 66.3002 49.4003 65.6002 47.2003 63.7002C45.0003 61.8002 40.2003 61.2002 35.8003 62.3002C31.4003 63.4002 27.6003 65.5002 28.2003 66.3002C28.8003 67.1002 35.4003 65.8002 40.1003 66.1002C44.8003 66.4002 48.0003 66.3002 48.0003 66.3002Z"></path>
<path fill="#6B5148" d="M32.9002 74.5001C33.4002 76.4001 34.4002 80.4001 39.9002 80.8001C45.8002 81.2001 46.9002 76.9001 47.5002 77.2001C48.1002 77.5001 46.1002 81.7001 40.2002 81.8001C34.4002 81.9001 32.3002 77.3001 31.9002 76.0001C31.6002 74.8001 31.2002 72.8001 32.2002 72.9001C32.7002 73.0001 32.7002 73.8001 32.9002 74.5001Z"></path>
<path fill="#6B5148" d="M32.6001 75.2998C32.6001 75.2998 31.5001 76.0998 30.1001 75.9998C28.7001 75.8998 28.1001 75.4998 28.1001 75.4998C28.1001 75.4998 28.9001 76.7998 30.7001 76.8998C32.5001 76.9998 33.0001 76.5998 33.0001 76.5998C33.0001 76.5998 33.5001 77.4998 33.1001 77.7998C32.6001 78.0998 31.7001 78.5998 30.3001 78.1998C29.0001 77.7998 28.5001 77.2998 28.5001 77.2998C28.5001 77.2998 29.3001 79.1998 31.7001 79.4998C33.6001 79.6998 34.6001 79.0998 34.6001 79.0998L35.1001 79.7998C35.1001 79.7998 35.0001 80.3998 33.6001 80.7998C32.2001 81.1998 31.3001 80.7998 31.3001 80.7998C31.3001 80.7998 32.4001 82.0998 34.1001 81.6998C35.7001 81.3998 36.4001 80.3998 36.4001 80.3998C36.4001 80.3998 35.5001 79.4998 34.7001 78.5998C33.7001 77.5998 32.6001 75.2998 32.6001 75.2998Z"></path>
<path fill="#6B5148" d="M76.2 74.5001C75.7 76.4001 74.7 80.4001 69.2 80.8001C63.3 81.2001 62.2 76.9001 61.6 77.2001C61 77.5001 63 81.7001 68.9 81.8001C74.7 81.9001 76.8 77.3001 77.2 76.0001C77.5 74.8001 77.9 72.8001 76.9 72.9001C76.4 73.0001 76.4 73.8001 76.2 74.5001Z"></path>
<path fill="#6B5148" d="M76.5002 75.2998C76.5002 75.2998 77.6002 76.0998 79.0002 75.9998C80.4002 75.8998 81.0002 75.4998 81.0002 75.4998C81.0002 75.4998 80.2002 76.7998 78.4002 76.8998C76.6002 76.9998 76.1002 76.5998 76.1002 76.5998C76.1002 76.5998 75.6002 77.4998 76.0002 77.7998C76.5002 78.0998 77.4002 78.5998 78.8002 78.1998C80.1002 77.7998 80.6002 77.2998 80.6002 77.2998C80.6002 77.2998 79.8002 79.1998 77.4002 79.4998C75.5002 79.6998 74.5002 79.0998 74.5002 79.0998L74.0002 79.7998C74.0002 79.7998 74.1002 80.3998 75.5002 80.7998C76.9002 81.1998 77.8002 80.7998 77.8002 80.7998C77.8002 80.7998 76.7002 82.0998 75.0002 81.6998C73.4002 81.3998 72.7002 80.3998 72.7002 80.3998C72.7002 80.3998 73.6002 79.4998 74.4002 78.5998C75.4002 77.5998 76.5002 75.2998 76.5002 75.2998Z"></path>
<path fill="#A6D7E9" d="M40.6002 97.8999C39.9002 96.1999 38.5002 95.4999 37.0002 94.6999C34.7002 93.4999 35.0002 91.2999 34.1002 89.1999C33.3002 87.2999 31.8002 86.0999 30.4002 84.6999C27.7002 81.9999 26.7002 78.4999 25.6002 74.9999C25.0002 73.1999 23.9002 70.6999 21.6002 71.2999C18.9002 71.9999 20.1002 75.6999 20.7002 77.3999C21.8002 80.2999 24.7002 84.1999 23.4002 87.3999C23.2002 87.2999 23.0002 87.3999 22.9002 87.5999C22.8002 89.5999 23.6002 91.0999 24.7002 92.6999C26.0002 94.4999 27.1002 96.4999 27.6002 98.6999C28.4002 102.5 28.9002 106.4 31.6002 109.4C32.7002 110.6 35.3002 113.6 37.0002 111.9C38.1002 110.8 37.4002 108.9 37.9002 107.6C38.6002 105.9 39.7002 104.5 40.4002 102.7C41.1002 101.2 41.3002 99.3999 40.6002 97.8999Z"></path>
<path fill="#A6D7E9" d="M36.4004 90.0996C36.7004 90.5996 37.0004 90.8996 37.4004 91.1996C37.4004 91.2996 37.5004 91.2996 37.6004 91.2996L37.7004 91.3996C37.8004 91.3996 37.8004 91.2996 37.8004 91.2996C37.8004 91.2996 37.8004 91.1996 37.7004 91.1996C37.8004 90.7996 37.7004 90.4996 37.8004 90.1996C37.9004 89.7996 38.0004 89.3996 38.2004 89.0996C38.4004 88.4996 38.6004 87.7996 38.7004 87.1996C38.8004 86.1996 39.1004 84.6996 38.2004 83.8996C37.3004 83.0996 36.3004 84.0996 35.8004 84.8996C35.3004 85.8996 35.3004 87.1996 35.5004 88.2996C35.8004 88.8996 36.0004 89.4996 36.4004 90.0996Z"></path>
<path fill="#A6D7E9" d="M18.3004 81.5998C17.0004 80.3998 15.3004 79.5998 13.5004 79.6998C12.5004 79.6998 10.3004 80.3998 10.7004 81.8998C10.9004 82.6998 11.6004 83.0998 12.4004 83.2998C12.8004 83.3998 13.3004 83.3998 13.7004 83.3998C14.3004 83.4998 15.0004 83.5998 15.6004 83.7998C16.4004 84.0998 17.3004 84.3998 18.0004 84.7998C18.8004 85.1998 19.6004 85.6998 19.8004 86.5998C19.8004 86.7998 20.0004 86.7998 20.1004 86.6998C20.2004 86.6998 20.3004 86.6998 20.3004 86.5998C20.4004 85.5998 20.3004 84.6998 19.9004 83.7998C19.5004 82.9998 18.9004 82.1998 18.3004 81.5998Z"></path>
<path fill="#A6D7E9" d="M18.5004 88.3002C18.5004 88.3002 18.4004 88.2002 18.3004 88.2002C17.7004 87.9002 16.7004 88.2002 16.1004 88.4002C15.2004 88.7002 14.4004 89.0002 13.6004 89.5002C12.0004 90.3002 10.8004 91.5002 10.2004 93.2002C9.90035 94.0002 9.50035 95.7002 10.8004 96.0002C12.3004 96.4002 13.7004 94.6002 14.5004 93.5002C15.1004 92.7002 15.6004 91.9002 16.2004 91.1002C16.5004 90.6002 16.9004 90.1002 17.2004 89.7002C17.6004 89.3002 18.1004 89.0002 18.4004 88.6002C18.6004 88.4002 18.6004 88.3002 18.5004 88.3002Z"></path>
<path fill="#FFC9BD" d="M31.8001 173.6C32.5001 169.9 38.3001 116.1 38.3001 113.5C38.3001 110.8 36.5001 107.4 34.8001 102.3C33.1001 97.2004 34.2001 92.7004 33.5001 89.7004C32.8001 86.6004 31.7001 87.5004 31.7001 87.5004C31.7001 87.5004 32.4001 81.5004 31.3001 80.4004C30.2001 79.3004 29.2001 81.3004 29.2001 81.3004C29.2001 81.3004 28.9001 78.4004 27.7001 78.4004C26.5001 78.4004 25.5001 82.4004 25.5001 82.4004C25.5001 82.4004 25.4001 81.1004 24.5001 80.9004C23.6001 80.7004 23.5001 82.1004 22.9001 84.6004C22.3001 87.0004 20.1001 94.0004 20.0001 101.8C19.9001 109.6 26.0001 121.7 26.0001 121.7L13.6001 173.8H31.8001V173.6Z"></path>
<path fill="#C1B6B2" d="M31.4005 90.5998C31.5005 89.4998 31.8005 88.3998 32.0005 87.2998C31.8005 87.2998 31.7005 87.3998 31.7005 87.3998C31.7005 87.3998 31.8005 86.6998 31.8005 85.7998C31.4005 87.4998 31.3005 89.1998 31.1005 90.8998C30.9005 92.2998 30.7005 93.6998 30.6005 95.1998C30.5005 96.3998 30.5005 97.5998 30.5005 98.7998C30.5005 99.7998 30.5005 100.9 30.8005 101.8C30.8005 101.9 31.0005 101.9 31.0005 101.8C31.1005 100.8 30.9005 99.7998 30.8005 98.7998C30.8005 97.5998 30.9005 96.3998 30.9005 95.1998C31.1005 93.6998 31.2005 92.0998 31.4005 90.5998Z"></path>
<path fill="#C1B6B2" d="M27.0004 95.7C26.9004 97.8 26.9004 100.1 27.3004 102.1C27.3004 102.2 27.6004 102.2 27.6004 102.1C27.0004 94.9 28.2004 87.6 29.8004 80.5C29.5004 80.9 29.3004 81.3 29.3004 81.3C29.3004 81.3 29.3004 81.1 29.2004 80.7C29.1004 81.4 29.0004 82.1 28.9004 82.7C28.5004 84.7 28.1004 86.8 27.9004 88.8C27.4004 91.1 27.1004 93.4 27.0004 95.7Z"></path>
<path fill="#C1B6B2" d="M23.9003 101.8C24.0003 100.9 23.7003 100.1 23.7003 99.1998C23.7003 98.1998 23.8003 97.1998 23.8003 96.1998C23.9003 94.3998 24.1003 92.4998 24.3003 90.6998C24.5003 88.7998 24.8003 86.8998 25.1003 84.8998C25.3003 83.6998 25.5003 82.4998 25.6003 81.2998C25.4003 81.7998 25.3003 82.1998 25.3003 82.1998C25.3003 82.1998 25.3003 81.6998 25.0003 81.2998C24.5003 84.3998 24.1003 87.4998 23.8003 90.5998C23.6003 92.5998 23.4003 94.4998 23.3003 96.4998C23.2003 98.1998 23.0003 99.9998 23.5003 101.7C23.7003 102 23.9003 101.9 23.9003 101.8Z"></path>
<path fill="#A6D7E9" d="M68.5004 102.7C69.1004 104.4 70.3004 105.9 71.0004 107.6C71.5004 108.9 70.8004 110.9 71.9004 111.9C73.6004 113.6 76.3004 110.6 77.3004 109.4C80.0004 106.4 80.4004 102.5 81.3004 98.6999C81.8004 96.4999 82.9004 94.4999 84.2004 92.6999C85.4004 91.0999 86.1004 89.5999 86.0004 87.5999C86.0004 87.2999 85.7004 87.2999 85.5004 87.3999C84.3004 84.1999 87.1004 80.2999 88.2004 77.3999C88.8004 75.6999 90.0004 71.8999 87.3004 71.2999C85.0004 70.6999 83.9004 73.1999 83.3004 74.9999C82.2004 78.4999 81.2004 81.9999 78.5004 84.6999C77.1004 86.0999 75.6004 87.2999 74.8004 89.1999C73.9004 91.2999 74.2004 93.4999 71.9004 94.6999C70.4004 95.4999 69.0004 96.1999 68.3004 97.8999C67.8004 99.3999 68.0004 101.2 68.5004 102.7Z"></path>
<path fill="#A6D7E9" d="M73.5003 88.2C73.7003 87.1 73.7003 85.8 73.2003 84.8C72.8003 84 71.7003 83 70.8003 83.8C70.0003 84.6 70.2003 86.1 70.3003 87.1C70.4003 87.8 70.6003 88.4 70.8003 89C70.9003 89.4 71.1003 89.8 71.2003 90.1C71.3003 90.4 71.3003 90.8 71.3003 91.1C71.3003 91.1 71.3003 91.2 71.2003 91.2C71.1003 91.3 71.2003 91.4 71.3003 91.3L71.4003 91.2C71.5003 91.2 71.6003 91.2 71.6003 91.1C72.0003 90.8 72.3003 90.4 72.6003 90C73.1003 89.5 73.3003 88.9 73.5003 88.2Z"></path>
<path fill="#A6D7E9" d="M89.2001 83.7998C88.8001 84.6998 88.6001 85.5998 88.8001 86.5998C88.8001 86.6998 88.9001 86.7998 89.0001 86.6998C89.1001 86.6998 89.3001 86.6998 89.3001 86.5998C89.5001 85.6998 90.3001 85.1998 91.1001 84.7998C91.9001 84.3998 92.7001 84.0998 93.5001 83.7998C94.1001 83.5998 94.7001 83.3998 95.4001 83.3998C95.8001 83.3998 96.3001 83.3998 96.7001 83.2998C97.5001 83.1998 98.2001 82.6998 98.4001 81.8998C98.7001 80.4998 96.6001 79.7998 95.6001 79.6998C93.8001 79.5998 92.1001 80.3998 90.8001 81.5998C90.1001 82.1998 89.6001 82.9998 89.2001 83.7998Z"></path>
<path fill="#A6D7E9" d="M90.5003 88.3C90.4003 88.4 90.4003 88.5 90.5003 88.5C90.9003 88.9 91.4003 89.2 91.7003 89.6C92.1003 90 92.4003 90.5 92.7003 91C93.2003 91.8 93.8003 92.6 94.4003 93.4C95.2003 94.4 96.6003 96.2 98.1003 95.9C99.4003 95.6 99.0003 93.9 98.7003 93C98.1003 91.3 96.9003 90.2 95.3003 89.3C94.5003 88.9 93.6003 88.5 92.8003 88.2C92.2003 88 91.2003 87.7 90.6003 88C90.6003 88.2 90.6003 88.2 90.5003 88.3Z"></path>
<path fill="#FFC9BD" d="M77.2002 173.6C76.5002 169.9 70.7002 116.1 70.7002 113.5C70.7002 110.8 72.5002 107.4 74.2002 102.3C75.8002 97.2004 74.8002 92.7004 75.5002 89.7004C76.2002 86.6004 77.3002 87.5004 77.3002 87.5004C77.3002 87.5004 76.6002 81.5004 77.7002 80.4004C78.8002 79.3004 79.8002 81.3004 79.8002 81.3004C79.8002 81.3004 80.1002 78.4004 81.3002 78.4004C82.5002 78.4004 83.5002 82.4004 83.5002 82.4004C83.5002 82.4004 83.6002 81.1004 84.5002 80.9004C85.4002 80.7004 85.5002 82.1004 86.1002 84.6004C86.7002 87.0004 88.9002 94.0004 89.0002 101.8C89.1002 109.6 83.0002 121.7 83.0002 121.7L95.4002 173.8H77.2002V173.6Z"></path>
<path fill="#C1B6B2" d="M77.6 90.5998C77.5 89.4998 77.2 88.3998 77 87.2998C77.2 87.2998 77.3 87.3998 77.3 87.3998C77.3 87.3998 77.2 86.6998 77.2 85.7998C77.6 87.4998 77.7 89.1998 77.9 90.8998C78.1 92.2998 78.3 93.6998 78.4 95.1998C78.5 96.3998 78.5 97.5998 78.5 98.7998C78.5 99.7998 78.5 100.9 78.2 101.8C78.2 101.9 78 101.9 78 101.8C77.9 100.8 78.2 99.7998 78.2 98.7998C78.2 97.5998 78.1 96.3998 78.1 95.1998C78 93.6998 77.9 92.0998 77.6 90.5998Z"></path>
<path fill="#C1B6B2" d="M82.0998 95.7C82.1998 97.8 82.1998 100.1 81.7998 102.1C81.7998 102.2 81.4998 102.2 81.4998 102.1C82.0998 94.9 80.8998 87.6 79.2998 80.5C79.5998 80.9 79.7998 81.3 79.7998 81.3C79.7998 81.3 79.7998 81.1 79.8998 80.7C79.9998 81.4 80.0998 82.1 80.1998 82.7C80.5998 84.7 80.9998 86.8 81.1998 88.8C81.5998 91.1 81.9998 93.4 82.0998 95.7Z"></path>
<path fill="#C1B6B2" d="M85.2 101.8C85.1 100.9 85.4 100.1 85.4 99.1998C85.4 98.1998 85.3 97.1998 85.3 96.1998C85.2 94.3998 85 92.4998 84.8 90.6998C84.6 88.7998 84.3 86.8998 84 84.8998C83.8 83.6998 83.6 82.4998 83.5 81.2998C83.7 81.7998 83.8 82.1998 83.8 82.1998C83.8 82.1998 83.8 81.6998 84.1 81.2998C84.6 84.3998 85 87.4998 85.3 90.5998C85.5 92.5998 85.7 94.4998 85.8 96.4998C85.9 98.1998 86.1 99.9998 85.6 101.7C85.4 102 85.2 101.9 85.2 101.8Z"></path>
</g>
<defs>
<clipPath id="clip0_130_5">
<rect fill="white" height="173.6" width="109.1"></rect>
</clipPath>
</defs>
</svg>
