<svg xmlns="http://www.w3.org/2000/svg" fill="none" viewBox="0 0 110 174" height="174" width="110">
<g clip-path="url(#clip0_130_184)">
<path fill="#FFB5A5" d="M96.8002 130.9C84.9002 128.9 70.4002 135.5 67.4002 132.7C64.4002 129.9 66.3002 111.4 66.3002 111.4C66.4002 111.5 59.4001 111.8 54.6001 111.9C49.8001 111.7 42.7002 111.5 42.9002 111.4C42.9002 111.4 44.8001 129.8 41.8001 132.7C38.8001 135.5 24.3001 128.9 12.4001 130.9C0.50015 132.9 -0.19985 140.9 0.20015 153.1C0.60015 165.3 2.90015 173.6 2.90015 173.6H50.2001H59.0001H106.3C106.3 173.6 108.6 165.3 109 153.1C109.4 140.9 108.7 132.9 96.8002 130.9Z"></path>
<path fill="#CBC2BF" d="M47.1001 119.001C51.4001 120.301 54.3001 120.301 58.8001 119.901C61.1001 119.701 63.7001 118.901 65.8001 118.001C66.0001 114.301 66.3001 111.301 66.3001 111.301C66.4001 111.401 59.4001 111.701 54.6001 111.801C49.8001 111.601 42.7001 111.401 42.9001 111.301C42.9001 111.301 43.2001 113.901 43.3001 117.201C44.1001 117.601 46.2001 118.701 47.1001 119.001Z"></path>
<path fill="#FF5B38" d="M97.1004 130.9C94.7004 130.5 92.2004 130.4 89.7004 130.6C88.5004 135.1 85.7004 139.3 82.2004 142.3C75.4004 148.2 66.9004 150.1 58.2004 150.9C47.4004 151.8 35.3004 149.6 27.0004 142.3C23.5004 139.3 20.6004 135.1 19.5004 130.6C17.0004 130.5 14.5004 130.5 12.1004 130.9C4.50039 132.2 1.50039 135.9 0.400391 141.6C2.40039 141.5 4.40039 142.2 6.10039 143C9.00039 144.4 11.3004 146.4 13.3004 148.8C17.6004 154 20.6004 160.9 20.8004 167.7C20.8004 169.7 20.6004 171.7 20.3004 173.7H44.9004H57.8004H89.1004C88.8004 171.7 88.6004 169.7 88.6004 167.7C88.7004 160.9 91.7004 154 96.1004 148.8C98.1004 146.4 100.4 144.3 103.3 143C105 142.2 107.1 141.5 109 141.6C107.7 135.9 104.7 132.2 97.1004 130.9Z"></path>
<path fill="#FFB5A5" d="M86.9004 79.1008C86.9004 79.1008 89.3004 67.4008 92.5004 67.2008C95.6004 66.9008 97.2004 77.1008 93.6004 82.9008C89.9004 88.7008 85.9004 87.2008 85.9004 87.2008L86.9004 79.1008Z"></path>
<path fill="#FFB5A5" d="M22.1004 79.1008C22.1004 79.1008 19.7004 67.4008 16.5004 67.2008C13.4004 66.9008 11.8004 77.1008 15.4004 82.9008C19.1004 88.7008 23.1004 87.2008 23.1004 87.2008L22.1004 79.1008Z"></path>
<path fill="#FFB5A5" d="M87.3005 60.2005C87.1005 55.1005 73.5005 38.1005 62.0005 37.3005C58.7005 37.1005 56.3005 37.1005 54.6005 37.2005C52.8005 37.1005 50.4005 37.1005 47.2005 37.3005C35.6005 38.1005 22.0005 55.1005 21.7005 60.2005C21.4005 65.3005 20.9005 89.2004 22.8005 95.0005C24.7005 100.8 28.9005 104.6 37.9005 111.8C47.9005 119.8 61.1005 119.9 71.2005 111.8C80.1005 104.6 84.4005 100.8 86.3005 95.0005C88.2005 89.2004 87.6005 65.4005 87.3005 60.2005Z"></path>
<path fill="#CF7F5D" d="M38.0999 31.0003C38.0999 31.0003 27.8999 17.0003 35.2999 8.40034C42.5999 -0.299657 60.4999 -3.29966 70.0999 4.60034C79.6999 12.5003 76.4999 27.0003 72.7999 30.9003C69.0999 34.8003 38.0999 31.0003 38.0999 31.0003Z"></path>
<path fill="#6B5148" d="M75.4004 20.7999C67.8004 15.5999 58.2004 14.3999 49.2004 15.4999C45.5004 15.9999 41.8004 16.7999 38.4004 18.2999C36.7004 19.0999 34.9004 20.0999 33.4004 21.3999C34.9004 26.6999 38.1004 30.9999 38.1004 30.9999C38.1004 30.9999 69.2004 34.7999 72.8004 30.8999C74.4004 29.1999 75.8004 25.5999 76.3004 21.4999C76.0004 21.1999 75.7004 20.9999 75.4004 20.7999Z"></path>
<path fill="#CF7F5D" d="M21.3002 77.2C21.3002 77.2 17.0002 69.6 19.0002 52.8C21.0002 36 32.3002 23 48.7002 20.8C65.1002 18.6 80.8002 25.4 86.7002 38C92.5002 50.6 90.5002 67.7 89.3002 72.6C88.1002 77.5 87.0002 78.7 87.0002 78.7C87.0002 78.7 88.1002 62.2 78.7002 51.3C69.3002 40.4 51.6002 39.3 43.0002 42.7C35.9002 45.5 29.4002 50.5 25.9002 57.5C23.0002 63.3 21.8002 70.7 21.3002 77.2Z"></path>
<path fill="#C1B6B2" d="M24.8001 56.4004C24.1001 55.8004 23.5001 55.0004 23.0001 54.2004C22.5001 53.4004 22.1001 52.5004 21.8001 51.6004C21.7001 51.2004 21.6001 50.8004 21.5001 50.3004C21.4001 49.9004 21.2001 49.5004 21.1001 49.1004C21.1001 49.0004 20.8001 49.0004 20.8001 49.1004C20.7001 49.5004 20.6001 50.0004 20.6001 50.4004C20.7001 50.9004 20.8001 51.3004 20.9001 51.8004C21.2001 52.8004 21.7001 53.7004 22.2001 54.6004C22.7001 55.5004 23.4001 56.3004 24.2001 57.0004C24.6001 57.4004 25.1001 57.7004 25.6001 58.0004C25.7001 57.8004 25.8001 57.6004 25.9001 57.4004C25.9001 57.3004 26.0001 57.3004 26.0001 57.2004C25.6001 57.0004 25.2001 56.8004 24.8001 56.4004Z"></path>
<path fill="#C1B6B2" d="M30.2 43.2008C29.2 41.1008 28.9 38.5008 29.8 36.4008C29.8 36.3008 29.7 36.3008 29.7 36.3008C29 37.3008 28.5 38.5008 28.5 39.7008C28.5 40.9008 28.8 42.2008 29.3 43.3008C30.2 45.2008 31.6 47.1008 33.3 48.4008C33.5 48.2008 33.7 48.1008 33.9 47.9008C32.5 46.5008 31.1 45.1008 30.2 43.2008Z"></path>
<path fill="#C1B6B2" d="M44.0003 42.4004C43.0003 40.9004 42.2003 39.3004 41.6003 37.7004C41.2003 36.5004 40.9003 35.3004 40.8003 34.0004C40.7003 32.7004 40.6003 31.4004 40.5003 30.2004C40.5003 30.1004 40.3003 30.0004 40.3003 30.2004C40.0003 31.6004 39.8003 32.8004 39.8003 34.2004C39.9003 35.6004 40.1003 36.9004 40.6003 38.1004C41.2003 39.7004 41.9003 41.4004 43.1003 42.8004C43.5003 42.6004 43.8003 42.5004 44.0003 42.4004Z"></path>
<path fill="#C1B6B2" d="M87.9003 49.2005C87.8003 49.6005 87.6003 50.0005 87.5003 50.4005C87.4003 50.8005 87.3003 51.3005 87.2003 51.7005C86.9003 52.6005 86.5003 53.5005 86.0003 54.3005C85.5003 55.1005 84.9003 55.8005 84.2003 56.5005C83.8003 56.9005 83.3003 57.2005 82.8003 57.5005C82.9003 57.8005 83.1003 58.0005 83.2003 58.3005C83.8003 58.0005 84.3003 57.6005 84.8003 57.2005C85.6003 56.5005 86.2003 55.7005 86.8003 54.8005C87.3003 53.9005 87.8003 53.0005 88.1003 52.0005C88.2003 51.6005 88.4003 51.1004 88.4003 50.6004C88.5003 50.1004 88.3003 49.7005 88.2003 49.3005C88.1003 49.1005 87.9003 49.1005 87.9003 49.2005Z"></path>
<path fill="#C1B6B2" d="M80.5001 39.8002C80.5001 38.5002 80.0001 37.3002 79.3001 36.3002C79.3001 36.2002 79.1001 36.3002 79.2001 36.4002C80.1001 38.6002 79.9001 41.2002 78.8001 43.2002C77.9001 45.0002 76.5001 46.4002 75.1001 47.9002C75.3001 48.1002 75.5001 48.2002 75.7001 48.4002C77.4001 47.1002 78.8001 45.3002 79.7001 43.3002C80.2001 42.2002 80.5001 41.0002 80.5001 39.8002Z"></path>
<path fill="#C1B6B2" d="M68.9 38.3002C69.4 37.1002 69.6 35.8002 69.7 34.5002C69.8 33.1002 69.5 31.8002 69.3 30.4002C69.3 30.3002 69.1 30.3002 69.1 30.4002C69 31.7002 68.9 33.0002 68.8 34.2002C68.7 35.5002 68.5 36.7002 68 37.9002C67.4 39.6002 66.5 41.3002 65.5 42.9002C65.8 43.0002 66 43.1002 66.3 43.2002C67.5 41.8002 68.3 40.0002 68.9 38.3002Z"></path>
<path fill="#C1B6B2" d="M55.0001 41.1004C55.7001 39.2004 56.1001 37.3005 56.1001 35.2005C56.1001 33.9005 56.1001 32.6005 56.0001 31.3005C55.9001 30.1005 55.7001 28.7005 55.0001 27.7005C54.9001 27.6005 54.7001 27.6005 54.7001 27.8005C54.8001 29.1005 55.1001 30.3005 55.1001 31.6005C55.2001 32.8005 55.2001 34.0005 55.2001 35.3005C55.2001 37.4005 54.6001 39.3005 54.1001 41.2005C54.4001 41.0005 54.7001 41.0004 55.0001 41.1004Z"></path>
<path fill="#CF7F5D" d="M61.2003 66.3002C61.2003 66.3002 59.8003 65.6002 62.0003 63.7002C64.2003 61.8002 69.0003 61.2002 73.4003 62.3002C77.8003 63.4002 81.6003 65.5002 81.0003 66.3002C80.4003 67.1002 73.8003 65.8002 69.1003 66.1002C64.4003 66.4002 61.2003 66.3002 61.2003 66.3002Z"></path>
<path fill="#C1B6B2" d="M56.4999 91.1008C54.9999 92.6008 52.3999 92.9008 50.3999 92.2008C49.7999 92.0008 47.6999 90.5008 48.9999 89.9008C49.6999 89.6008 50.3999 89.9008 51.0999 90.1008C51.6999 90.2008 52.1999 90.3008 52.7999 90.1008C52.9999 90.1008 53.0999 89.9008 53.0999 89.7008C53.1999 86.7008 53.1999 83.6008 53.1999 80.6008C53.1999 79.1008 53.1999 77.6008 53.1999 76.1008C53.1999 74.5008 53.0999 73.0008 52.9999 71.4008C52.9999 71.1008 52.4999 71.1008 52.4999 71.4008C52.4999 72.9008 52.2999 74.4008 52.2999 75.9008C52.2999 77.5008 52.2999 79.0008 52.2999 80.6008C52.2999 83.5008 52.1999 86.4008 52.0999 89.4008C50.7999 89.5008 48.5999 88.4008 47.7999 89.8008C47.1999 90.8008 48.2999 92.0008 49.0999 92.6008C51.2999 94.0008 55.2999 93.8008 56.8999 91.6008C57.2999 91.1008 56.7999 90.8008 56.4999 91.1008Z"></path>
<path fill="#FF5B38" d="M45.6001 100.5C45.6001 100.5 48.5001 97.9002 51.2001 98.6002C53.9001 99.3002 54.6001 101 54.6001 101C54.6001 101 57.5001 96.4002 59.6001 97.7002C61.7001 99.0002 61.7001 100.3 61.7001 100.3C61.7001 100.3 58.1001 103.1 54.3001 103C50.0001 102.9 46.5001 100.1 46.3001 100.5C46.0001 100.9 50.2001 104.2 54.3001 104.3C58.4001 104.5 61.8001 101 61.8001 101C61.8001 101 60.7001 109.5 54.6001 109.1C48.7001 108.9 45.6001 100.5 45.6001 100.5Z"></path>
<path fill="#CF7F5D" d="M48.0003 66.3002C48.0003 66.3002 49.4003 65.6002 47.2003 63.7002C45.0003 61.8002 40.2003 61.2002 35.8003 62.3002C31.4003 63.4002 27.6003 65.5002 28.2003 66.3002C28.8003 67.1002 35.4003 65.8002 40.1003 66.1002C44.8003 66.4002 48.0003 66.3002 48.0003 66.3002Z"></path>
<path fill="#6B5148" d="M71.6 73.4004C71.6 73.4004 72.9 74.0004 74.1 72.7004C75.3 71.4004 75.4 69.9004 75.4 69.9004C75.4 69.9004 75.7 71.4004 75.1 72.8004C74.7 73.7004 74.1 74.3004 74.1 74.3004C74.1 74.3004 75.4 74.0004 76.6 72.9004C77.8 71.8004 78.5 70.4004 78.5 70.4004C78.5 70.4004 78.8 71.6004 77.4 73.3004C76 74.9004 75 74.9004 75 74.9004C75 74.9004 76.6 75.4004 77.9 75.0004C79.2 74.5004 80.1 73.4004 80.1 73.4004C80.1 73.4004 79.9 75.2004 78.6 75.8004C77.3 76.4004 76.4 75.9004 76.4 75.9004C76.4 75.9004 73.8 74.3004 72.5 74.2004C71 74.0004 71.6 73.4004 71.6 73.4004Z"></path>
<path fill="#6B5148" d="M62.1001 79.8008C62.1001 79.8008 64.4001 75.2008 69.7001 74.9008C74.1001 74.7008 77.7001 77.1008 77.7001 77.1008C77.7001 77.1008 73.2001 71.7008 68.6001 73.0008C63.5001 74.6008 62.1001 79.8008 62.1001 79.8008Z"></path>
<path fill="#6B5148" d="M38.1 73.4004C38.1 73.4004 36.8 74.0004 35.6 72.7004C34.4 71.4004 34.3 69.9004 34.3 69.9004C34.3 69.9004 34 71.4004 34.6 72.8004C35 73.7004 35.6 74.3004 35.6 74.3004C35.6 74.3004 34.3 74.0004 33.1 72.9004C31.9 71.8004 31.2 70.4004 31.2 70.4004C31.2 70.4004 30.9 71.6004 32.3 73.3004C33.7 75.0004 34.6 75.0004 34.6 75.0004C34.6 75.0004 33 75.5004 31.7 75.1004C30.4 74.6004 29.5 73.5004 29.5 73.5004C29.5 73.5004 29.7 75.3004 31 75.9004C32.3 76.5004 33.2 76.0004 33.2 76.0004C33.2 76.0004 35.8 74.4004 37.1 74.3004C38.7 74.0004 38.1 73.4004 38.1 73.4004Z"></path>
<path fill="#6B5148" d="M47.6002 79.8008C47.6002 79.8008 45.4002 75.2008 40.1002 74.9008C35.8002 74.7008 32.2002 77.1008 32.2002 77.1008C32.2002 77.1008 36.6002 71.7008 41.1002 73.0008C46.2002 74.6008 47.6002 79.8008 47.6002 79.8008Z"></path>
<path fill="#FFC9BD" d="M22.2001 108.2C22.2001 108.2 22.1001 103.2 21.3001 100.7C20.5001 98.2002 19.5001 98.8002 19.2001 99.8002C18.9001 100.8 18.0001 110.7 18.0001 113.1C18.0001 115.5 19.3001 128.3 19.0001 129.6C18.7001 130.9 8.60011 173.5 8.90011 173.5C9.20011 173.5 26.4001 173.4 26.4001 173.4C26.4001 173.4 29.7001 140.3 30.1001 136.7C31.0001 128.6 36.1001 121.3 37.2001 118.4C38.3001 115.5 39.6001 105.8 41.0001 102.2C42.3001 99.0002 44.1001 93.7002 43.1001 93.1002C42.1001 92.4002 40.6001 95.8002 39.9001 97.6002C38.7001 100.4 35.7001 106.7 35.7001 106.7C35.7001 106.7 39.2001 95.4002 40.6001 91.6002C42.0001 87.8002 42.1001 85.9002 41.0001 85.2002C39.9001 84.5002 38.2001 88.3002 36.2001 93.6002C35.2001 96.1002 34.2001 98.7002 33.6001 100.7C32.9001 102.9 32.4001 103.8 32.4001 103.8C32.4001 103.8 33.0001 100.8 34.3001 96.7002C36.2001 90.9002 38.9001 83.3002 38.2001 82.5002C37.1001 81.2002 35.6001 83.1002 34.5001 85.6002C33.5001 88.1002 29.9001 97.9002 29.1001 99.6002C28.3001 101.4 28.0001 101.9 28.0001 101.9C28.0001 101.9 29.7001 91.7002 30.5001 87.9002C31.3001 84.1002 31.2001 82.1002 29.6001 82.5002C28.0001 83.0002 25.1001 94.8002 23.6001 99.3002C22.2001 103.7 22.2001 108.2 22.2001 108.2Z"></path>
<path fill="#FFC45C" d="M78 87.0004V87.5004H96L96.1 86.9004L78 87.0004Z"></path>
<path fill="#FFA300" d="M81.6002 117.301C81.6002 116.601 76.4002 84.3006 76.4002 84.3006L76.2002 81.1006H98.1002L97.6002 83.6006L93.8002 122.001C93.8002 122.001 90.9002 125.401 88.6002 124.001C86.4002 122.801 81.6002 117.301 81.6002 117.301Z"></path>
<path fill="#FFEECF" d="M90.6 89.6009C89.1 88.4009 85.7 87.7009 83 90.7009C80.3 93.7009 82.5 98.4009 86.8 98.7009C91.1 99.0009 92.7 95.6009 92.4 93.4009C92.1 91.2009 91.4 90.3009 90.6 89.6009Z"></path>
<path fill="#FFEECF" d="M87.8999 87.7006C87.8999 87.4006 87.8999 87.1006 87.9999 86.8006C87.9999 86.6006 88.0999 86.5006 88.0999 86.3006C88.0999 86.1006 88.0999 86.0006 88.0999 85.8006C88.0999 85.7006 87.8999 85.7006 87.8999 85.8006C87.7999 85.9006 87.7999 86.1006 87.6999 86.2006C87.6999 86.4006 87.5999 86.5006 87.5999 86.7006C87.4999 87.0006 87.4999 87.4006 87.5999 87.7006C87.5999 87.8006 87.6999 87.9006 87.7999 87.9006C87.6999 87.9006 87.8999 87.8006 87.8999 87.7006Z"></path>
<path fill="#FFEECF" d="M90.6998 88.7004C90.8998 88.3004 91.0998 88.0004 91.2998 87.7004C91.4998 87.4004 91.7998 87.0004 91.6998 86.6004C91.6998 86.5004 91.4998 86.4004 91.3998 86.5004C91.2998 86.7004 91.1998 86.8004 91.0998 87.0004C90.9998 87.2004 90.8998 87.3004 90.7998 87.5004C90.5998 87.8004 90.3998 88.2004 90.2998 88.6004C90.2998 88.7004 90.5998 88.9004 90.6998 88.7004Z"></path>
<path fill="#FFEECF" d="M93.0998 91.401C93.3998 91.201 93.6998 91.101 93.8998 90.901C94.0998 90.801 94.1998 90.701 94.2998 90.601C94.3998 90.501 94.5998 90.301 94.5998 90.101C94.5998 89.901 94.4998 89.701 94.2998 89.801C94.0998 89.901 93.9998 90.001 93.7998 90.101C93.6998 90.201 93.4998 90.301 93.3998 90.401C93.1998 90.601 92.8998 90.801 92.6998 91.001C92.5998 91.201 92.7998 91.601 93.0998 91.401Z"></path>
<path fill="#FFEECF" d="M92.6003 97.1008C92.8003 97.2008 93.1003 97.4008 93.3003 97.5008C93.4003 97.6008 93.5003 97.7008 93.7003 97.7008C93.8003 97.8008 93.9003 97.8008 94.0003 97.8008C94.1003 97.8008 94.3003 97.8008 94.4003 97.6008C94.6003 97.3008 94.3003 97.1008 94.1003 97.0008C94.0003 96.9008 93.9003 96.9008 93.7003 96.8008C93.5003 96.7008 93.2003 96.5008 93.0003 96.4008C92.8003 96.3008 92.6003 96.4008 92.5003 96.5008C92.4003 96.8008 92.4003 97.0008 92.6003 97.1008Z"></path>
<path fill="#FFEECF" d="M88.8998 100.001C88.9998 100.301 89.0998 100.501 89.2998 100.801C89.2998 100.901 89.2998 100.701 89.2998 100.801V100.901C89.2998 101.001 89.3998 101.001 89.3998 101.101C89.4998 101.301 89.4998 101.501 89.6998 101.601L89.5998 101.501V101.601C89.5998 101.701 89.6998 101.701 89.7998 101.801C89.7998 101.701 89.6998 101.701 89.6998 101.601C89.6998 101.701 89.6998 101.701 89.7998 101.801C89.8998 101.901 89.9998 101.901 90.0998 101.801C90.1998 101.701 90.1998 101.701 90.2998 101.601L90.1998 101.701C90.2998 101.601 90.2998 101.501 90.2998 101.401C90.2998 101.501 90.1998 101.501 90.1998 101.601C90.3998 101.401 90.2998 101.101 90.2998 100.901C90.1998 100.701 90.1998 100.601 90.0998 100.401C89.9998 100.301 89.8998 100.101 89.7998 100.001C89.7998 99.901 89.6998 99.901 89.6998 99.801C89.6998 99.801 89.6998 99.701 89.5998 99.701C89.4998 99.601 89.2998 99.501 89.1998 99.601C88.7998 99.701 88.7998 99.901 88.8998 100.001Z"></path>
<path fill="#FFEECF" d="M84.5998 99.4006C84.5998 99.5006 84.5998 99.6006 84.4998 99.7006V99.8006C84.4998 99.8006 84.4998 99.8006 84.4998 99.9006C84.3998 100.101 84.2998 100.201 84.1998 100.401C84.0998 100.601 83.9998 100.701 83.8998 100.901C83.7998 101.001 83.7998 101.101 83.7998 101.201C83.7998 101.301 83.7998 101.301 83.7998 101.201C83.7998 101.201 83.7998 101.201 83.7998 101.301C83.7998 101.301 83.7998 101.401 83.7998 101.501C83.7998 101.601 83.7998 101.701 83.9998 101.701H84.0998H84.1998C84.2998 101.701 84.2998 101.701 84.3998 101.601C84.4998 101.601 84.4998 101.501 84.5998 101.501C84.7998 101.401 84.8998 101.201 84.9998 101.001C85.0998 100.801 85.1998 100.601 85.2998 100.401C85.3998 100.201 85.3998 100.001 85.4998 99.8006C85.4998 99.6006 85.4998 99.4006 85.2998 99.4006C84.7998 99.2006 84.5998 99.3006 84.5998 99.4006Z"></path>
<path fill="#FFEECF" d="M81.6 97.0004C81.5 97.1004 81.5 97.1004 81.4 97.2004L81.3 97.3004C81.2 97.4004 81 97.5004 80.9 97.6004C80.8 97.6004 80.8 97.7004 80.7 97.7004C80.7 97.7004 80.6 97.7004 80.6 97.8004C80.5 97.8004 80.5 97.9004 80.4 97.9004C80.3 97.9004 80.3 98.0004 80.2 98.0004C80.2 98.0004 80.2 98.1004 80.1 98.1004C80 98.2004 80.1 98.3004 80.2 98.4004C80.3 98.4004 80.4 98.5004 80.5 98.4004C80.6 98.4004 80.7 98.4004 80.8 98.3004C81 98.2004 81.2 98.2004 81.3 98.1004C81.6 97.9004 81.9 97.7004 82.1 97.4004C82.2 97.3004 82.2 97.0004 82 96.9004C81.9 96.9004 81.7 96.9004 81.6 97.0004Z"></path>
<path fill="#FFEECF" d="M80.9 91.6006C80.6 91.6006 80.3 91.6006 80 91.6006C79.9 91.6006 79.7 91.6006 79.6 91.6006H79.5C79.5 91.6006 79.5 91.6006 79.4 91.6006C79.4 91.6006 79.4 91.6006 79.3 91.6006H79.2C79.1 91.6006 79 91.7006 79.1 91.8006C79.1 91.9006 79.2 91.9006 79.2 92.0006C79.2 92.0006 79.2 92.1006 79.3 92.1006L79.4 92.2006C79.5 92.3006 79.7 92.4006 79.9 92.4006C80.2 92.5006 80.6 92.5006 80.9 92.5006C81.1 92.5006 81.3 92.3006 81.3 92.1006C81.2 91.8006 81.1 91.6006 80.9 91.6006Z"></path>
<path fill="#FFEECF" d="M83.7002 88.701C83.6002 88.601 83.6002 88.501 83.6002 88.501C83.5002 88.401 83.5002 88.301 83.5002 88.201C83.5002 88.201 83.5002 88.101 83.4002 88.101C83.4002 88.101 83.4002 88.001 83.3002 88.001C83.3002 88.001 83.3002 87.901 83.2002 87.901V87.801C83.1002 87.601 83.0002 87.401 82.9002 87.201C82.9002 87.201 82.9002 87.101 82.8002 87.101C82.8002 87.101 82.8002 87.001 82.7002 87.001C82.6002 86.901 82.6002 86.801 82.5002 86.801C82.4002 86.701 82.2002 86.701 82.2002 86.901C82.2002 87.001 82.2002 87.001 82.2002 87.101C82.2002 87.201 82.2002 87.201 82.2002 87.301V87.401C82.2002 87.501 82.2002 87.501 82.2002 87.601C82.3002 87.801 82.3002 88.101 82.4002 88.301C82.6002 88.701 82.8002 89.101 83.2002 89.401C83.3002 89.501 83.5002 89.501 83.6002 89.401C83.9002 89.001 83.8002 88.801 83.7002 88.701Z"></path>
<path fill="#FFC9BD" d="M97.7002 123.7C97.7002 123.7 97.4002 117.8 95.3002 113.4C93.2002 109 92.2002 104.8 93.3002 103.5C94.3002 102.3 97.2002 107.4 99.3002 112.2C101.4 117.1 101.3 126.4 101.4 130C101.5 133.6 102 135.1 100.7 138.7C99.4002 142.4 99.1002 145.3 99.5002 149.3C99.9002 153.3 104.7 173.4 104.7 173.4H88.9002C88.9002 173.4 87.4002 150.7 86.9002 149C86.4002 147.3 84.0002 145.9 84.8002 139.3C85.6002 132.7 87.1002 128 85.5002 125.1C83.9002 122.2 77.7002 121.4 77.7002 120.2C77.7002 119 80.0002 118.9 82.1002 119.3C84.8002 119.8 88.2002 122.7 88.2002 122.7C88.2002 122.7 85.7002 118.9 80.0002 117.9C77.6002 117.5 77.1002 115.8 79.6002 115.8C82.1002 115.8 83.6002 116.1 86.5002 117.1C90.8002 118.5 93.5002 124.3 93.5002 124.3C93.5002 124.3 93.9002 120.7 88.0002 116.3C85.3002 114.2 80.4002 114.1 79.8002 112.6C79.2002 111.2 81.4002 110.2 85.6002 111.5C89.8002 112.8 93.3002 115.8 95.1002 117.8C96.5002 119.9 97.7002 123.7 97.7002 123.7Z"></path>
</g>
<defs>
<clipPath id="clip0_130_184">
<rect fill="white" height="173.6" width="109.1"></rect>
</clipPath>
</defs>
</svg>
